<svg width="22" height="16" viewBox="0 0 22 16" fill="none" xmlns="http://www.w3.org/2000/svg">
<path d="M10.9491 10.5399C7.49909 10.5399 4.58813 11.1037 4.58813 13.2794C4.58813 15.4561 7.51789 16 10.9491 16C14.3991 16 17.31 15.4362 17.31 13.2605C17.31 11.0839 14.3803 10.5399 10.9491 10.5399Z" fill="#A5B4CB"/>
<path d="M10.949 8.46703C13.2851 8.46703 15.1583 6.58307 15.1583 4.23351C15.1583 1.88306 13.2851 0 10.949 0C8.61293 0 6.73975 1.88306 6.73975 4.23351C6.73975 6.58307 8.61293 8.46703 10.949 8.46703Z" fill="#E5EAF1"/>
<path d="M20.0879 5.21923C20.6923 2.84176 18.9203 0.706543 16.6639 0.706543C16.4186 0.706543 16.184 0.73356 15.9548 0.779488C15.9243 0.786692 15.8903 0.802002 15.8724 0.829019C15.8518 0.86324 15.867 0.909168 15.8894 0.938886C16.5672 1.89528 16.9567 3.0597 16.9567 4.30967C16.9567 5.50741 16.5995 6.6241 15.9727 7.55077C15.9082 7.64623 15.9655 7.77501 16.0792 7.79482C16.2368 7.82274 16.398 7.83715 16.5627 7.84165C18.2058 7.88488 19.6805 6.82132 20.0879 5.21923Z" fill="#E5EAF1"/>
<path d="M21.8093 10.817C21.5084 10.1722 20.7823 9.72999 19.6782 9.51295C19.1571 9.38507 17.7468 9.20496 16.4351 9.22928C16.4154 9.23198 16.4046 9.24549 16.4028 9.25449C16.4002 9.2671 16.4055 9.28871 16.4315 9.30222C17.0377 9.60391 19.381 10.916 19.0864 13.6834C19.0738 13.8032 19.1696 13.9068 19.2887 13.8888C19.8654 13.8059 21.349 13.4853 21.8093 12.4866C22.0636 11.9589 22.0636 11.3456 21.8093 10.817Z" fill="#A5B4CB"/>
<path d="M6.04483 0.779732C5.8165 0.732903 5.58101 0.706787 5.33567 0.706787C3.07926 0.706787 1.30726 2.84201 1.91255 5.21947C2.31906 6.82156 3.79379 7.88512 5.43685 7.84189C5.60161 7.83739 5.76368 7.82208 5.92037 7.79506C6.03409 7.77525 6.09139 7.64647 6.02692 7.55101C5.40014 6.62344 5.04288 5.50765 5.04288 4.30991C5.04288 3.05904 5.43327 1.89462 6.11109 0.939131C6.13258 0.909412 6.1487 0.863484 6.12721 0.829263C6.1093 0.801345 6.07617 0.786937 6.04483 0.779732Z" fill="#E5EAF1"/>
<path d="M2.32156 9.5127C1.21752 9.72973 0.492248 10.1719 0.191392 10.8167C-0.0637974 11.3453 -0.0637974 11.9586 0.191392 12.4872C0.651629 13.4851 2.13531 13.8066 2.71195 13.8885C2.83104 13.9065 2.92595 13.8038 2.91342 13.6832C2.61883 10.9167 4.9621 9.60456 5.56918 9.30287C5.59425 9.28846 5.59962 9.26775 5.59694 9.25424C5.59515 9.24523 5.5853 9.23173 5.5656 9.22992C4.25294 9.20471 2.84358 9.38482 2.32156 9.5127Z" fill="#A5B4CB"/>
</svg>
